P1
# chiffre 0
3 5 
1 1 1
1 0 1 
1 0 1 
1 0 1 
1 1 1
