P1
#Smiley Joie De La Langue Sorti
22 22
0 0 0 0 0 0 0 0 0 0 0 0 0 0 0 0 0 0 0 0 0 0
0 0 0 0 0 0 0 0 0 0 0 0 0 0 0 0 0 0 0 0 0 0
0 0 0 0 0 0 0 1 1 1 1 1 1 1 0 0 0 0 0 0 0 0
0 0 0 0 0 0 1 1 1 1 1 1 1 1 1 0 0 0 0 0 0 0
0 0 0 0 0 1 0 0 0 0 0 0 0 0 0 1 0 0 0 0 0 0
0 0 0 0 1 0 0 0 0 0 0 0 0 0 0 0 1 0 0 0 0 0
0 0 0 1 0 0 0 0 0 0 0 0 0 0 0 0 0 1 0 0 0 0
0 0 1 1 0 0 0 1 1 0 0 0 1 1 0 0 0 1 1 0 0 0
0 1 1 1 0 0 0 1 1 0 0 0 1 1 0 0 0 1 1 1 0 0
0 1 1 1 0 0 0 0 0 0 0 0 0 0 0 0 0 1 1 1 0 0
1 1 1 1 0 0 0 0 0 0 0 0 0 0 0 1 0 1 1 1 1 0
1 1 1 1 0 0 1 0 0 0 0 0 0 0 1 1 0 1 1 1 1 0
0 1 1 1 0 0 1 1 0 0 0 0 0 1 1 0 0 1 1 1 0 0
0 0 1 1 0 0 0 1 1 1 1 1 1 1 1 0 0 1 1 1 0 0
0 0 0 1 0 0 0 0 0 0 1 1 1 1 1 0 0 1 0 0 0 0
0 0 0 0 1 0 0 0 0 0 1 1 1 1 1 0 1 0 0 0 0 0
0 0 0 0 0 1 0 0 0 0 0 1 1 1 0 1 0 0 0 0 0 0
0 0 0 0 0 0 1 0 0 0 0 0 0 0 1 0 0 0 0 0 0 0
0 0 0 0 0 0 0 1 1 1 1 1 1 1 0 0 0 0 0 0 0 0
0 0 0 0 0 0 0 0 0 0 0 0 0 0 0 0 0 0 0 0 0 0
0 0 0 0 0 0 0 0 0 0 0 0 0 0 0 0 0 0 0 0 0 0
0 0 0 0 0 0 0 0 0 0 0 0 0 0 0 0 0 0 0 0 0 0
