P1
#Smiley Joie Du Content
22 22
0 0 0 0 0 0 0 0 0 0 0 0 0 0 0 0 0 0 0 0 0 0
0 0 0 0 0 0 0 0 0 0 0 0 0 0 0 0 0 0 0 0 0 0
0 0 0 0 0 0 0 1 1 1 1 1 1 1 0 0 0 0 0 0 0 0
0 0 0 0 0 0 1 1 1 1 1 1 1 1 1 0 0 0 0 0 0 0
0 0 0 0 0 1 0 0 0 0 0 0 0 0 0 1 0 0 0 0 0 0
0 0 0 0 1 0 0 0 0 0 0 0 0 0 0 0 1 0 0 0 0 0
0 0 0 1 0 0 0 0 0 0 0 0 0 0 0 0 0 1 0 0 0 0
0 0 1 1 0 0 0 1 1 0 0 0 1 1 0 0 0 1 1 0 0 0
0 1 1 1 0 0 0 1 1 0 0 0 1 1 0 0 0 1 1 1 0 0
0 1 1 1 0 0 0 0 0 0 0 0 0 0 0 0 0 1 1 1 0 0
1 1 1 1 0 0 0 0 0 0 0 0 0 0 0 0 0 1 1 1 1 0
1 1 1 1 0 0 0 0 0 0 0 0 0 0 0 0 0 1 1 1 1 0
0 1 1 1 0 0 1 0 0 0 0 0 0 0 1 0 0 1 1 1 0 0
0 0 1 1 0 0 1 1 0 0 0 0 0 1 1 0 0 1 1 1 0 0
0 0 0 1 0 0 0 1 1 1 1 1 1 1 0 0 0 1 0 0 0 0
0 0 0 0 1 0 0 0 0 0 0 0 0 0 0 0 1 0 0 0 0 0
0 0 0 0 0 1 0 0 0 0 0 0 0 0 0 1 0 0 0 0 0 0
0 0 0 0 0 0 1 0 0 0 0 0 0 0 1 0 0 0 0 0 0 0
0 0 0 0 0 0 0 1 1 1 1 1 1 1 0 0 0 0 0 0 0 0
0 0 0 0 0 0 0 0 0 0 0 0 0 0 0 0 0 0 0 0 0 0
0 0 0 0 0 0 0 0 0 0 0 0 0 0 0 0 0 0 0 0 0 0
0 0 0 0 0 0 0 0 0 0 0 0 0 0 0 0 0 0 0 0 0 0
